<svg width="70" height="31" viewBox="0 0 70 31" fill="none" xmlns="http://www.w3.org/2000/svg">
<path d="M0.816 23V0.439999H3.472V20.696H14.864V23H0.816ZM24.4013 23.288C22.8653 23.288 21.5213 22.9573 20.3693 22.296C19.2386 21.6133 18.3639 20.6533 17.7453 19.416C17.1266 18.1573 16.8173 16.6747 16.8173 14.968C16.8173 13.24 17.1266 11.7573 17.7453 10.52C18.3639 9.28267 19.2386 8.33333 20.3693 7.672C21.5213 6.98933 22.8653 6.648 24.4013 6.648C25.9586 6.648 27.3026 6.98933 28.4333 7.672C29.5853 8.33333 30.4706 9.28267 31.0893 10.52C31.7293 11.7573 32.0493 13.24 32.0493 14.968C32.0493 16.6747 31.7293 18.1573 31.0893 19.416C30.4706 20.6533 29.5853 21.6133 28.4333 22.296C27.3026 22.9573 25.9586 23.288 24.4013 23.288ZM24.4013 21.176C25.9373 21.176 27.1533 20.6533 28.0493 19.608C28.9453 18.5413 29.3933 16.9947 29.3933 14.968C29.3933 12.92 28.9346 11.3733 28.0173 10.328C27.1213 9.26133 25.9159 8.728 24.4013 8.728C22.8866 8.728 21.6813 9.26133 20.7853 10.328C19.8893 11.3733 19.4413 12.92 19.4413 14.968C19.4413 16.9947 19.8893 18.5413 20.7853 19.608C21.6813 20.6533 22.8866 21.176 24.4013 21.176ZM43.1625 30.136C41.7758 30.136 40.4958 29.9653 39.3225 29.624C38.1492 29.2827 37.0932 28.76 36.1545 28.056L36.9225 26.104C37.5838 26.5733 38.2345 26.9467 38.8745 27.224C39.5145 27.5013 40.1758 27.704 40.8585 27.832C41.5412 27.9813 42.2665 28.056 43.0345 28.056C44.6132 28.056 45.8078 27.64 46.6185 26.808C47.4292 25.976 47.8345 24.792 47.8345 23.256V18.552H48.1545C47.8132 19.8107 47.1092 20.8133 46.0425 21.56C44.9758 22.2853 43.7278 22.648 42.2985 22.648C40.8265 22.648 39.5465 22.328 38.4585 21.688C37.3918 21.0267 36.5598 20.0987 35.9625 18.904C35.3865 17.688 35.0985 16.2587 35.0985 14.616C35.0985 12.9947 35.3865 11.5867 35.9625 10.392C36.5598 9.19733 37.3918 8.28 38.4585 7.64C39.5465 6.97867 40.8265 6.648 42.2985 6.648C43.7492 6.648 44.9972 7.01067 46.0425 7.736C47.1092 8.46133 47.8132 9.464 48.1545 10.744L47.8345 10.424L48.1225 6.936H50.6505C50.5652 7.55467 50.5012 8.184 50.4585 8.824C50.4158 9.44267 50.3945 10.0507 50.3945 10.648V22.904C50.3945 25.2933 49.7758 27.096 48.5385 28.312C47.3225 29.528 45.5305 30.136 43.1625 30.136ZM42.7785 20.536C44.3358 20.536 45.5625 20.024 46.4585 19C47.3545 17.9547 47.8025 16.4933 47.8025 14.616C47.8025 12.7387 47.3545 11.288 46.4585 10.264C45.5625 9.24 44.3358 8.728 42.7785 8.728C41.2425 8.728 40.0158 9.24 39.0985 10.264C38.1812 11.288 37.7225 12.7387 37.7225 14.616C37.7225 16.4933 38.1812 17.9547 39.0985 19C40.0158 20.024 41.2425 20.536 42.7785 20.536ZM61.9638 23.288C60.4278 23.288 59.0838 22.9573 57.9318 22.296C56.8011 21.6133 55.9264 20.6533 55.3078 19.416C54.6891 18.1573 54.3798 16.6747 54.3798 14.968C54.3798 13.24 54.6891 11.7573 55.3078 10.52C55.9264 9.28267 56.8011 8.33333 57.9318 7.672C59.0838 6.98933 60.4278 6.648 61.9638 6.648C63.5211 6.648 64.8651 6.98933 65.9958 7.672C67.1478 8.33333 68.0331 9.28267 68.6518 10.52C69.2918 11.7573 69.6118 13.24 69.6118 14.968C69.6118 16.6747 69.2918 18.1573 68.6518 19.416C68.0331 20.6533 67.1478 21.6133 65.9958 22.296C64.8651 22.9573 63.5211 23.288 61.9638 23.288ZM61.9638 21.176C63.4998 21.176 64.7158 20.6533 65.6118 19.608C66.5078 18.5413 66.9558 16.9947 66.9558 14.968C66.9558 12.92 66.4971 11.3733 65.5798 10.328C64.6838 9.26133 63.4784 8.728 61.9638 8.728C60.4491 8.728 59.2438 9.26133 58.3478 10.328C57.4518 11.3733 57.0038 12.92 57.0038 14.968C57.0038 16.9947 57.4518 18.5413 58.3478 19.608C59.2438 20.6533 60.4491 21.176 61.9638 21.176Z" fill="white"/>
</svg>
