<svg width="39" height="39" viewBox="0 0 39 39" fill="none" xmlns="http://www.w3.org/2000/svg">
<path fill-rule="evenodd" clip-rule="evenodd" d="M24.6782 23.5163H25.962L32.852 30.4388C33.5182 31.105 33.5182 32.1938 32.852 32.86C32.1857 33.5263 31.097 33.5263 30.4307 32.86L23.5245 25.9538V24.67L23.0857 24.215C20.8107 26.165 17.707 27.1725 14.4082 26.62C9.8907 25.8563 6.2832 22.0863 5.7307 17.5363C4.8857 10.6625 10.6707 4.87754 17.5445 5.72254C22.0945 6.27504 25.8645 9.88254 26.6282 14.4C27.1807 17.6988 26.1732 20.8025 24.2232 23.0775L24.6782 23.5163ZM8.89945 16.2038C8.89945 20.25 12.1657 23.5163 16.212 23.5163C20.2582 23.5163 23.5245 20.25 23.5245 16.2038C23.5245 12.1575 20.2582 8.89129 16.212 8.89129C12.1657 8.89129 8.89945 12.1575 8.89945 16.2038Z" fill="white"/>
</svg>
